HIERARCHY
ROOT joint_0
{
	OFFSET 0.000000 0.000000 0.000000
	CHANNELS 6 Xposition Yposition Zposition Zrotation Yrotation Xrotation 
	JOINT joint_1
	{
		OFFSET 0.511002 1.944000 108.288940
		CHANNELS 3 Zrotation Yrotation Xrotation
		JOINT joint_2
		{
			OFFSET -9.074005 1.512993 98.440063
			CHANNELS 3 Zrotation Yrotation Xrotation
			JOINT joint_3
			{
				OFFSET -8.590996 1.815002 98.366943
				CHANNELS 3 Zrotation Yrotation Xrotation
				JOINT joint_4
				{
					OFFSET 2.489998 3.531998 136.462036
					CHANNELS 3 Zrotation Yrotation Xrotation
					JOINT joint_5
					{
						OFFSET 22.708000 2.955002 80.357056
						CHANNELS 3 Zrotation Yrotation Xrotation
						End Site
						{
							OFFSET 0.000000 0.000000 0.000000
						}
					}
				}
				JOINT joint_6
				{
					OFFSET 2.860001 -27.684998 77.234009
					CHANNELS 3 Zrotation Yrotation Xrotation
					JOINT joint_7
					{
						OFFSET 5.449997 -131.244003 -18.851929
						CHANNELS 3 Zrotation Yrotation Xrotation
						JOINT joint_8
						{
							OFFSET 35.757000 -24.661995 -264.074097
							CHANNELS 3 Zrotation Yrotation Xrotation
							JOINT joint_9
							{
								OFFSET 49.392001 -1.747002 -239.960938
								CHANNELS 3 Zrotation Yrotation Xrotation
								End Site
								{
									OFFSET 0.000000 0.000000 0.000000
								}
							}
						}
					}
				}
				JOINT joint_10
				{
					OFFSET -0.127998 31.625000 75.753052
					CHANNELS 3 Zrotation Yrotation Xrotation
					JOINT joint_11
					{
						OFFSET -5.618004 131.132996 -19.557007
						CHANNELS 3 Zrotation Yrotation Xrotation
						JOINT joint_12
						{
							OFFSET 46.488998 30.127991 -261.826050
							CHANNELS 3 Zrotation Yrotation Xrotation
							JOINT joint_13
							{
								OFFSET 66.021003 0.474030 -235.934937
								CHANNELS 3 Zrotation Yrotation Xrotation
								End Site
								{
									OFFSET 0.000000 0.000000 0.000000
								}
							}
						}
					}
				}
			}
		}
	}
	JOINT joint_14
	{
		OFFSET 15.887001 -78.871004 -94.561035
		CHANNELS 3 Zrotation Yrotation Xrotation
		JOINT joint_15
		{
			OFFSET -4.133003 6.714001 -473.615967
			CHANNELS 3 Zrotation Yrotation Xrotation
			JOINT joint_16
			{
				OFFSET -19.541000 5.340000 -399.613007
				CHANNELS 3 Zrotation Yrotation Xrotation
				JOINT joint_17
				{
					OFFSET 164.317001 41.657999 -73.195000
					CHANNELS 3 Zrotation Yrotation Xrotation
					End Site
					{
						OFFSET 0.000000 0.000000 0.000000
					}
				}
			}
		}
	}
	JOINT joint_18
	{
		OFFSET 6.513000 77.960991 -96.406982
		CHANNELS 3 Zrotation Yrotation Xrotation
		JOINT joint_19
		{
			OFFSET -10.660004 -8.518997 -473.485016
			CHANNELS 3 Zrotation Yrotation Xrotation
			JOINT joint_20
			{
				OFFSET -36.967995 -11.098999 -398.260010
				CHANNELS 3 Zrotation Yrotation Xrotation
				JOINT joint_21
				{
					OFFSET 166.067997 30.363998 -74.785000
					CHANNELS 3 Zrotation Yrotation Xrotation
					End Site
					{
						OFFSET 0.000000 0.000000 0.000000
					}
				}
			}
		}
	}
}
MOTION
Frames: 9
Frame Time: 0.016667
1162.270996 56.959999 1086.780029 -3.318688 9.345466 -2.748359 4.091156 13.252450 8.012854 4.792037 -10.045171 -2.446031 5.284940 5.361263 -0.406899 -2.837678 14.635999 5.410367 0.000000 0.000000 0.000000 4.722553 -4.052590 -0.693103 14.036200 -9.650260 -6.891631 0.394975 -24.364614 10.416476 0.000000 0.000000 0.000000 -11.427427 13.411495 0.396765 -3.222104 12.404515 -1.091125 2.738208 4.579529 12.362917 0.000000 0.000000 0.000000 5.909150 0.003164 1.706442 -1.965579 16.152768 -0.187246 -0.772886 9.020973 -2.740655 0.000000 0.000000 0.000000 -7.488411 -34.314570 10.957694 0.781251 28.320451 -7.642230 5.766637 -5.990700 4.770968 0.000000 0.000000 0.000000 
1199.254028 57.481998 1090.765991 -4.510803 9.217530 -3.096834 4.596323 12.156597 7.607969 5.380336 -9.590235 -2.286037 5.872400 5.238405 -0.452093 -2.677060 14.111344 5.049266 0.000000 0.000000 0.000000 4.185119 -4.261244 -0.622825 14.955028 -10.032411 -6.936630 2.164069 -28.820260 14.537578 0.000000 0.000000 0.000000 -11.150658 15.306392 0.411102 -3.172514 14.315291 -0.701924 2.410548 3.635968 11.782249 0.000000 0.000000 0.000000 6.882379 1.583870 1.695639 -1.071278 15.863325 0.043804 0.292674 12.526979 -3.085722 0.000000 0.000000 0.000000 -6.954185 -32.908357 10.505263 1.578454 18.320496 -5.376591 6.452218 -4.793712 4.805345 0.000000 0.000000 0.000000 
1236.115967 57.881001 1091.620972 -5.547048 9.109975 -3.523793 4.931400 11.099403 7.250005 5.795525 -9.137851 -2.157545 6.302095 5.052067 -0.373675 -2.464651 13.748808 4.604114 0.000000 0.000000 0.000000 3.843525 -4.720355 -0.610939 15.827799 -10.545892 -7.370476 3.939855 -32.942927 18.556111 0.000000 0.000000 0.000000 -10.776724 17.198534 0.559447 -3.091090 16.189981 -0.442937 2.183076 2.861881 11.490735 0.000000 0.000000 0.000000 7.668218 2.911191 1.779348 -0.342410 16.059437 0.310514 1.180420 15.440415 -3.364931 0.000000 0.000000 0.000000 -6.613724 -31.355987 10.917693 1.596687 9.459667 -4.303374 5.865854 -5.012898 4.605771 0.000000 0.000000 0.000000 
1272.881958 58.279999 1089.676025 -6.399680 9.004870 -3.989834 5.126170 9.997630 6.956366 6.078241 -8.650718 -2.052772 6.610982 4.867922 -0.209812 -2.210483 13.422012 4.080814 0.000000 0.000000 0.000000 3.603617 -5.354004 -0.590236 16.535305 -11.115663 -8.147596 5.669944 -37.193743 22.551258 0.000000 0.000000 0.000000 -10.389194 19.020086 0.812246 -3.011649 17.982852 -0.182808 1.983643 2.131046 11.280348 0.000000 0.000000 0.000000 8.268844 3.942693 1.910027 0.227228 16.915839 0.629880 1.897851 17.721014 -3.565947 0.000000 0.000000 0.000000 -6.405161 -29.710092 11.728913 1.213274 1.295518 -3.622551 4.845997 -6.060961 4.398097 0.000000 0.000000 0.000000 
1309.301025 58.915001 1084.744995 -7.601863 8.395250 -4.615088 5.483062 9.582985 7.033892 6.465494 -8.274801 -2.151416 7.066925 4.643900 -0.071890 -1.933143 13.057860 3.509644 0.000000 0.000000 0.000000 3.430778 -5.977244 -0.512796 16.850860 -11.710280 -8.566673 6.791284 -41.214256 25.652986 0.000000 0.000000 0.000000 -10.110293 20.439964 0.956550 -2.920969 19.428890 0.360316 2.022204 2.220176 11.363438 0.000000 0.000000 0.000000 8.919777 4.994162 2.102461 0.864598 18.748305 1.057641 2.684049 19.433475 -3.572855 0.000000 0.000000 0.000000 -6.070794 -28.244096 12.551280 0.948914 -3.982244 -2.731519 4.223565 -5.512649 4.024206 0.000000 0.000000 0.000000 
1345.213013 59.736000 1076.322998 -8.623077 7.416927 -5.127025 5.857970 9.628368 7.101189 6.817016 -7.965387 -2.311137 7.500704 4.438281 0.106056 -1.633245 12.691913 2.893540 0.000000 0.000000 0.000000 3.139650 -6.453485 -0.670677 16.928679 -12.368151 -8.085505 7.208470 -44.700801 27.644881 0.000000 0.000000 0.000000 -10.081780 21.286063 1.030921 -2.772572 20.369222 1.092782 2.462296 3.654443 11.967954 0.000000 0.000000 0.000000 9.604444 6.003320 2.135486 1.535445 21.636964 1.813929 3.587306 20.646855 -3.372732 0.000000 0.000000 0.000000 -5.919238 -27.964773 12.963328 0.836042 -3.896609 -2.016370 4.135978 -5.093804 3.901346 0.000000 0.000000 0.000000 
1380.777954 60.792999 1064.916016 -9.055569 6.368038 -5.282520 6.033848 9.694204 6.784051 6.955123 -7.649169 -2.291628 7.673459 4.332297 0.302080 -1.326258 12.307821 2.263476 0.000000 0.000000 0.000000 2.838687 -6.833306 -1.016245 16.899610 -13.004804 -7.236896 7.292754 -47.727886 29.017546 0.000000 0.000000 0.000000 -10.247561 21.719578 1.114211 -2.597483 20.934032 1.923927 3.156250 5.935503 12.899387 0.000000 0.000000 0.000000 10.066584 6.823101 1.827214 1.964877 25.353269 2.882397 4.347593 21.539052 -3.165921 0.000000 0.000000 0.000000 -6.085031 -28.609846 12.913767 0.741101 -0.167883 -1.873469 4.276351 -5.849707 4.115621 0.000000 0.000000 0.000000 
1416.224976 62.467999 1051.854004 -8.976482 5.156958 -5.053827 5.965042 9.914506 6.331149 6.833225 -7.420510 -2.177926 7.543186 4.389905 0.382292 -1.039574 11.791368 1.674398 0.000000 0.000000 0.000000 2.837118 -7.142866 -1.299049 16.753888 -13.441403 -6.689415 7.264794 -49.975856 29.904839 0.000000 0.000000 0.000000 -10.468628 21.912206 1.111886 -2.496173 21.283740 3.046603 3.854499 8.335651 13.703002 0.000000 0.000000 0.000000 9.967804 7.527836 1.106197 1.796412 29.814693 3.916133 4.431254 22.124458 -3.278899 0.000000 0.000000 0.000000 -6.406659 -29.337580 12.423149 0.699262 4.978794 -2.185229 4.511331 -6.057578 4.256931 0.000000 0.000000 0.000000 
1452.323975 65.440002 1036.197998 -8.303995 3.534712 -4.254511 5.560505 10.456999 5.723800 6.342440 -7.383567 -2.021128 6.998813 4.743801 0.355267 -0.773702 10.955859 1.134441 0.000000 0.000000 0.000000 3.365199 -7.418697 -1.517001 16.432199 -13.550193 -6.953084 7.326705 -51.639360 30.631412 0.000000 0.000000 0.000000 -10.758272 21.955518 0.821267 -2.465236 21.554328 4.693631 4.561283 10.982449 14.150048 0.000000 0.000000 0.000000 9.036771 8.483357 -0.296528 0.705049 35.216427 4.585065 3.215954 22.218280 -4.045915 0.000000 0.000000 0.000000 -6.892209 -29.906498 11.221210 0.801675 11.538624 -2.941901 4.897399 -3.892030 3.971932 0.000000 0.000000 0.000000 
